<svg xmlns="http://www.w3.org/2000/svg" width="31.945" height="25.957" viewBox="0 0 31.945 25.957">
  <g id="icon_twitter" transform="translate(-1756.818 -26)">
    <path id="Logo" d="M29.684,7.962c.019.281.019.564.019.847,0,8.661-6.593,18.648-18.648,18.648v-.005A18.555,18.555,0,0,1,1.009,24.513a13.336,13.336,0,0,0,1.56.094,13.151,13.151,0,0,0,8.14-2.811,6.562,6.562,0,0,1-6.123-4.552,6.542,6.542,0,0,0,2.959-.112,6.557,6.557,0,0,1-5.258-6.425v-.083a6.5,6.5,0,0,0,2.975.82A6.559,6.559,0,0,1,3.232,2.7,18.608,18.608,0,0,0,16.74,9.544,6.56,6.56,0,0,1,27.909,3.566a13.136,13.136,0,0,0,4.162-1.591A6.577,6.577,0,0,1,29.19,5.6a13.08,13.08,0,0,0,3.764-1.031A13.335,13.335,0,0,1,29.684,7.962Z" transform="translate(1755.809 24.5)"/>
  </g>
</svg>
