<svg xmlns="http://www.w3.org/2000/svg" width="776.322" height="183.18" viewBox="0 0 776.322 183.18">
  <path id="ttl_event" d="M129.258-146.028V-183.18H21.156V0h108.1V-37.152H65.532V-77.4h54.7v-33.54h-54.7v-35.088Zm140.61-37.152L232.2-57.276l-37.152-125.9H146.286L206.142,0H254.13l60.114-183.18Zm176.214,37.152V-183.18H337.98V0h108.1V-37.152H382.356V-77.4h54.7v-33.54h-54.7v-35.088ZM595.464-183.18V-80.754L527.094-183.18H481.428V0H520.9V-113L591.078,0h43.86V-183.18Zm202.014,0H664.092v37.926h44.376V0h44.376V-145.254h44.634Z" transform="translate(-21.156 183.18)" fill="#fff" opacity="0.6"/>
</svg>
