<svg xmlns="http://www.w3.org/2000/svg" width="444.08" height="88.694" viewBox="0 0 444.08 88.694">
  <path id="lineup" d="M30.988-17.934V-86.62H10V0H57.1V-17.934ZM72.59-86.62V0H93.574V-86.62Zm94.794,0v48.434L135.054-86.62H113.46V0h18.666V-53.436L165.31,0h20.74V-86.62Zm89.792,17.568V-86.62H206.058V0h51.118V-17.568H227.042V-36.6h25.864V-52.46H227.042V-69.052ZM332.938,2.074c20.862,0,35.5-10.492,35.5-33.428V-86.62H347.456v52.094c0,11.224-5.124,17.446-14.518,17.446-9.272,0-14.274-6.222-14.152-17.446V-86.62H297.8v55.266C297.8-8.418,312.686,2.074,332.938,2.074ZM420.656-86.62H387.35V0h20.984V-24.034h12.322c21.106,0,33.428-13.054,33.428-32.818C454.084-76.738,441.64-86.62,420.656-86.62Zm-4.392,46.482h-7.93V-69.174h7.93c10.37,0,15.616,5.246,15.616,14.03C431.88-46.238,426.756-40.138,416.264-40.138Z" transform="translate(-10.004 86.62)" fill="#f2f0eb"/>
</svg>
