<svg xmlns="http://www.w3.org/2000/svg" xmlns:xlink="http://www.w3.org/1999/xlink" width="352" height="20.164" viewBox="0 0 352 20.164">
  <defs>
    <clipPath id="clip-path">
      <rect id="長方形_57" data-name="長方形 57" width="352" height="20.164" fill="#fff"/>
    </clipPath>
  </defs>
  <g id="logo_text" transform="translate(0 -1399)">
    <g id="グループ_284" data-name="グループ 284" transform="translate(0 1399)" clip-path="url(#clip-path)">
      <path id="パス_354" data-name="パス 354" d="M0,17.761l1.855-3.916c1.622.953,3.271,1.984,5.126,1.984,1.185,0,1.777-.412,1.777-1.056,0-.747-.8-1.056-1.983-1.391C4.353,12.686.592,11.81.592,7.225c0-4.353,3.581-6.079,7.007-6.079s5.332.979,6.7,2.318L12.365,7.148a9.247,9.247,0,0,0-4.328-1.52c-1.056,0-1.752.361-1.752.98,0,.695.875,1,2.061,1.339,2.5.747,6.414,1.649,6.414,5.924,0,4.457-3.039,6.492-6.981,6.492A11.108,11.108,0,0,1,0,17.761" transform="translate(0 -0.199)" fill="#fff"/>
      <path id="パス_355" data-name="パス 355" d="M34.632,6.551H30.459V20H24.792V6.551H20.618V1.708H34.632Z" transform="translate(-3.59 -0.297)" fill="#fff"/>
      <path id="パス_356" data-name="パス 356" d="M49.925,16.752H44.541l-1,3.246H38.024L44.412,1.709h6.414L57.189,20H50.9Zm-1.082-3.478L47.22,7.942,45.6,13.274Z" transform="translate(-6.62 -0.297)" fill="#fff"/>
      <path id="パス_357" data-name="パス 357" d="M71.228,14.279h-.773V20H64.788V1.708h8.526c4.791,0,7.341,2.216,7.341,6.079a5.888,5.888,0,0,1-3.812,5.9L81.119,20H74.6Zm-.773-3.659h1.52c1.906,0,2.679-.875,2.679-2.241s-.824-1.932-2.679-1.932h-1.52Z" transform="translate(-11.279 -0.297)" fill="#fff"/>
      <path id="パス_358" data-name="パス 358" d="M104.7,14.818c0,3.375-2.55,5.178-7.341,5.178H88.806V1.708h8.037c4.791,0,7.213,1.777,7.213,5.178a3.465,3.465,0,0,1-2.885,3.786c2.241.515,3.529,1.752,3.529,4.147M94.473,5.932v3.4h2.009a1.6,1.6,0,0,0,1.751-1.778c0-.979-.54-1.622-1.751-1.622Zm4.276,8.036c0-1-.67-1.6-1.906-1.6h-2.37v3.4h2.37a1.76,1.76,0,0,0,1.906-1.8" transform="translate(-15.461 -0.297)" fill="#fff"/>
      <path id="パス_359" data-name="パス 359" d="M112.294,13.583V1.709h5.667v10.87c-.026,1.7.515,2.73,2.113,2.73s2.189-1.03,2.189-2.73V1.709h5.667V13.583c0,4.894-3.452,6.878-7.857,6.878-4.276,0-7.779-1.984-7.779-6.878" transform="translate(-19.55 -0.297)" fill="#fff"/>
      <path id="パス_360" data-name="パス 360" d="M135.688,10.755c0-5.8,3.555-9.608,9.428-9.608a11.918,11.918,0,0,1,4.92,1.159l-.952,5.126a7.678,7.678,0,0,0-3.3-.747,3.871,3.871,0,0,0-4.1,4.07c0,2.628,1.469,4.07,4.122,4.07a8.35,8.35,0,0,0,3.5-.8l.98,5.1a11.674,11.674,0,0,1-5.178,1.236c-6.053,0-9.428-3.812-9.428-9.609" transform="translate(-23.623 -0.199)" fill="#fff"/>
      <path id="パス_361" data-name="パス 361" d="M164.478,14.432l-.85,1.083V20H157.96V1.708h5.668V8.636l4.765-6.928H174.6L168.47,9.976,175.194,20h-7.007Z" transform="translate(-27.5 -0.297)" fill="#fff"/>
      <path id="パス_362" data-name="パス 362" d="M179.827,17.761l1.855-3.916c1.623.953,3.271,1.984,5.126,1.984,1.185,0,1.777-.412,1.777-1.056,0-.747-.8-1.056-1.983-1.391-2.422-.7-6.182-1.572-6.182-6.156,0-4.353,3.58-6.079,7.006-6.079s5.332.979,6.7,2.318l-1.932,3.684a9.247,9.247,0,0,0-4.328-1.52c-1.056,0-1.752.361-1.752.98,0,.695.876,1,2.061,1.339,2.5.747,6.414,1.649,6.414,5.924,0,4.457-3.039,6.492-6.98,6.492a11.107,11.107,0,0,1-7.779-2.6" transform="translate(-31.307 -0.199)" fill="#fff"/>
      <path id="パス_363" data-name="パス 363" d="M200.184,3.1a3.084,3.084,0,1,1,6.167,0,3.084,3.084,0,1,1-6.167,0m5.673,0a2.591,2.591,0,1,0-5.18,0,2.591,2.591,0,1,0,5.18,0m-3.623-1.758h1.055c.719,0,1.264.277,1.264,1.021a1.009,1.009,0,0,1-.88,1.063l.955,1.422H204.1l-.92-1.388h-.51V4.845h-.435Zm1.833,1.055c0-.477-.318-.686-.786-.686h-.611V3.1h.611c.477.008.786-.218.786-.7" transform="translate(-34.851 0)" fill="#fff"/>
      <path id="パス_364" data-name="パス 364" d="M214.716,10.755c0-5.8,3.555-9.608,9.428-9.608a11.918,11.918,0,0,1,4.92,1.159l-.953,5.126a7.672,7.672,0,0,0-3.3-.747,3.87,3.87,0,0,0-4.1,4.07c0,2.628,1.469,4.07,4.121,4.07a8.355,8.355,0,0,0,3.5-.8l.979,5.1a11.67,11.67,0,0,1-5.178,1.236c-6.053,0-9.428-3.812-9.428-9.609" transform="translate(-37.381 -0.199)" fill="#fff"/>
      <path id="パス_365" data-name="パス 365" d="M252.933,1.708V20h-5.667V13.016h-4.61V20h-5.668V1.708h5.668V8.431h4.61V1.708Z" transform="translate(-41.259 -0.297)" fill="#fff"/>
      <rect id="長方形_56" data-name="長方形 56" width="5.667" height="18.289" transform="translate(216.518 1.411)" fill="#fff"/>
      <path id="パス_366" data-name="パス 366" d="M285.5,15.154V20H274.885V1.708h5.668V15.154Z" transform="translate(-47.857 -0.297)" fill="#fff"/>
      <path id="パス_367" data-name="パス 367" d="M303.311,15.154V20H292.7V1.708h5.668V15.154Z" transform="translate(-50.958 -0.297)" fill="#fff"/>
      <path id="パス_368" data-name="パス 368" d="M316.175,6.448V8.559H321.2v4.172h-5.022v2.525h5.847V20H310.508V1.708h11.514v4.74Z" transform="translate(-54.058 -0.297)" fill="#fff"/>
      <path id="パス_369" data-name="パス 369" d="M337.158,1.708c5.692,0,9.5,2.73,9.5,9.144S342.85,20,337.158,20h-7.342V1.708Zm3.528,9.144c0-2.963-1.468-4.3-3.528-4.3h-1.675v8.6h1.675c2.061,0,3.528-1.339,3.528-4.3" transform="translate(-57.42 -0.297)" fill="#fff"/>
      <path id="パス_370" data-name="パス 370" d="M360.853,10.755c0-5.8,3.555-9.608,9.428-9.608a11.918,11.918,0,0,1,4.92,1.159l-.953,5.126a7.672,7.672,0,0,0-3.3-.747,3.87,3.87,0,0,0-4.1,4.07c0,2.628,1.468,4.07,4.121,4.07a8.355,8.355,0,0,0,3.5-.8l.979,5.1a11.67,11.67,0,0,1-5.178,1.236c-6.054,0-9.428-3.812-9.428-9.609" transform="translate(-62.823 -0.199)" fill="#fff"/>
      <path id="パス_371" data-name="パス 371" d="M382.876,13.583V1.709h5.667v10.87c-.026,1.7.515,2.73,2.113,2.73s2.189-1.03,2.189-2.73V1.709h5.667V13.583c0,4.894-3.452,6.878-7.857,6.878-4.277,0-7.779-1.984-7.779-6.878" transform="translate(-66.657 -0.297)" fill="#fff"/>
      <path id="パス_372" data-name="パス 372" d="M422.931,8.172c0,4.2-2.525,7.265-7.341,7.265h-2.5V20h-5.667V1.708h8.166c4.791,0,7.341,2.266,7.341,6.464m-5.951.464c0-1.364-.824-2.189-2.678-2.189h-1.211v4.687H414.3a2.366,2.366,0,0,0,2.678-2.5" transform="translate(-70.931 -0.297)" fill="#fff"/>
    </g>
  </g>
</svg>
