<svg xmlns="http://www.w3.org/2000/svg" xmlns:xlink="http://www.w3.org/1999/xlink" width="284.979" height="39" viewBox="0 0 284.979 39">
  <defs>
    <clipPath id="clip-path">
      <rect id="長方形_57" data-name="長方形 57" width="230.244" height="13.189" fill="none"/>
    </clipPath>
    <clipPath id="clip-path-2">
      <rect id="長方形_78" data-name="長方形 78" width="39" height="39" transform="translate(0 0.063)" fill="none"/>
    </clipPath>
  </defs>
  <g id="logo" transform="translate(0 -0.063)">
    <g id="グループ_285" data-name="グループ 285" transform="translate(54.735 13.189)">
      <g id="グループ_284" data-name="グループ 284" transform="translate(0 0)" clip-path="url(#clip-path)">
        <path id="パス_354" data-name="パス 354" d="M0,12.014,1.213,9.453a6.887,6.887,0,0,0,3.353,1.3c.775,0,1.163-.27,1.163-.691,0-.488-.522-.69-1.3-.91C2.848,8.694.387,8.121.387,5.123c0-2.848,2.342-3.977,4.583-3.977A5.751,5.751,0,0,1,9.351,2.662L8.088,5.072a6.049,6.049,0,0,0-2.831-.994c-.691,0-1.146.236-1.146.641,0,.454.573.657,1.348.876,1.635.488,4.2,1.078,4.2,3.875,0,2.916-1.988,4.246-4.566,4.246A7.266,7.266,0,0,1,0,12.014" transform="translate(0 -0.527)" fill="#1a1311"/>
        <path id="パス_355" data-name="パス 355" d="M29.784,4.876H27.055v8.8H23.348v-8.8h-2.73V1.708h9.166Z" transform="translate(-9.48 -0.785)" fill="#1a1311"/>
        <path id="パス_356" data-name="パス 356" d="M45.809,11.549H42.287l-.657,2.123H38.024L42.2,1.709h4.2L50.56,13.672H46.449ZM45.1,9.274,44.039,5.786,42.978,9.274Z" transform="translate(-17.482 -0.786)" fill="#1a1311"/>
        <path id="パス_357" data-name="パス 357" d="M69,9.931h-.506v3.741H64.788V1.708h5.577c3.134,0,4.8,1.449,4.8,3.976a3.851,3.851,0,0,1-2.494,3.859l2.8,4.128H71.207Zm-.506-2.393h.994c1.247,0,1.752-.573,1.752-1.466S70.7,4.808,69.489,4.808h-.994Z" transform="translate(-29.788 -0.785)" fill="#1a1311"/>
        <path id="パス_358" data-name="パス 358" d="M99.2,10.284c0,2.207-1.668,3.387-4.8,3.387H88.806V1.708h5.257c3.134,0,4.718,1.163,4.718,3.387a2.266,2.266,0,0,1-1.887,2.476A2.569,2.569,0,0,1,99.2,10.284M92.513,4.471V6.7h1.314a1.049,1.049,0,0,0,1.145-1.163c0-.64-.353-1.061-1.145-1.061Zm2.8,5.256c0-.657-.438-1.045-1.247-1.045h-1.55v2.225h1.55a1.151,1.151,0,0,0,1.247-1.18" transform="translate(-40.831 -0.785)" fill="#1a1311"/>
        <path id="パス_359" data-name="パス 359" d="M112.294,9.476V1.709H116v7.11c-.017,1.112.337,1.786,1.382,1.786s1.432-.674,1.432-1.786V1.709h3.707V9.476c0,3.2-2.258,4.5-5.139,4.5-2.8,0-5.088-1.3-5.088-4.5" transform="translate(-51.63 -0.786)" fill="#1a1311"/>
        <path id="パス_360" data-name="パス 360" d="M135.688,7.431c0-3.791,2.325-6.284,6.167-6.284a7.8,7.8,0,0,1,3.218.758l-.623,3.353a5.022,5.022,0,0,0-2.157-.489,2.532,2.532,0,0,0-2.68,2.662,2.417,2.417,0,0,0,2.7,2.662,5.462,5.462,0,0,0,2.291-.522l.641,3.336a7.636,7.636,0,0,1-3.387.809c-3.959,0-6.167-2.494-6.167-6.285" transform="translate(-62.386 -0.527)" fill="#1a1311"/>
        <path id="パス_361" data-name="パス 361" d="M162.223,10.031l-.556.708v2.931H157.96V1.708h3.708V6.24l3.117-4.532h4.061l-4.01,5.408,4.4,6.555h-4.583Z" transform="translate(-72.626 -0.785)" fill="#1a1311"/>
        <path id="パス_362" data-name="パス 362" d="M179.827,12.014l1.213-2.561a6.891,6.891,0,0,0,3.353,1.3c.775,0,1.163-.27,1.163-.691,0-.488-.522-.69-1.3-.91-1.584-.455-4.044-1.028-4.044-4.027,0-2.848,2.342-3.977,4.583-3.977a5.751,5.751,0,0,1,4.381,1.516l-1.264,2.409a6.049,6.049,0,0,0-2.831-.994c-.691,0-1.146.236-1.146.641,0,.454.573.657,1.348.876,1.635.488,4.2,1.078,4.2,3.875,0,2.916-1.988,4.246-4.566,4.246a7.265,7.265,0,0,1-5.088-1.7" transform="translate(-82.68 -0.527)" fill="#1a1311"/>
        <path id="パス_363" data-name="パス 363" d="M200.184,2.025a2.017,2.017,0,1,1,4.034,0,2.017,2.017,0,1,1-4.034,0m3.711,0a1.695,1.695,0,1,0-3.388,0,1.695,1.695,0,1,0,3.388,0m-2.37-1.15h.69c.471,0,.827.181.827.668a.66.66,0,0,1-.575.7l.625.93h-.345l-.6-.908h-.334v.908h-.285Zm1.2.69c0-.312-.208-.449-.514-.449h-.4v.909h.4c.312.005.514-.143.514-.46" transform="translate(-92.04 0)" fill="#1a1311"/>
        <path id="パス_364" data-name="パス 364" d="M214.716,7.431c0-3.791,2.325-6.284,6.167-6.284A7.8,7.8,0,0,1,224.1,1.9l-.623,3.353a5.018,5.018,0,0,0-2.157-.489,2.532,2.532,0,0,0-2.679,2.662,2.417,2.417,0,0,0,2.7,2.662,5.465,5.465,0,0,0,2.292-.522l.64,3.336a7.634,7.634,0,0,1-3.387.809c-3.959,0-6.167-2.494-6.167-6.285" transform="translate(-98.721 -0.527)" fill="#1a1311"/>
        <path id="パス_365" data-name="パス 365" d="M247.417,1.708V13.671H243.71V9.1h-3.016v4.566h-3.708V1.708h3.708v4.4h3.016v-4.4Z" transform="translate(-108.961 -0.785)" fill="#1a1311"/>
        <rect id="長方形_56" data-name="長方形 56" width="3.707" height="11.963" transform="translate(141.625 0.923)" fill="#1a1311"/>
        <path id="パス_366" data-name="パス 366" d="M281.828,10.5v3.168h-6.942V1.708h3.708V10.5Z" transform="translate(-126.385 -0.785)" fill="#1a1311"/>
        <path id="パス_367" data-name="パス 367" d="M299.639,10.5v3.168H292.7V1.708H296.4V10.5Z" transform="translate(-134.574 -0.785)" fill="#1a1311"/>
        <path id="パス_368" data-name="パス 368" d="M314.215,4.808V6.19H317.5V8.919h-3.285V10.57h3.824v3.1h-7.531V1.708h7.531v3.1Z" transform="translate(-142.764 -0.785)" fill="#1a1311"/>
        <path id="パス_369" data-name="パス 369" d="M334.619,1.708c3.723,0,6.216,1.786,6.216,5.981s-2.493,5.981-6.216,5.981h-4.8V1.708Zm2.308,5.981c0-1.938-.96-2.813-2.308-2.813h-1.1V10.5h1.1c1.348,0,2.308-.876,2.308-2.813" transform="translate(-151.641 -0.785)" fill="#1a1311"/>
        <path id="パス_370" data-name="パス 370" d="M360.853,7.431c0-3.791,2.325-6.284,6.167-6.284a7.8,7.8,0,0,1,3.218.758l-.623,3.353a5.018,5.018,0,0,0-2.157-.489,2.532,2.532,0,0,0-2.679,2.662,2.417,2.417,0,0,0,2.7,2.662,5.465,5.465,0,0,0,2.292-.522l.64,3.336a7.633,7.633,0,0,1-3.387.809c-3.96,0-6.167-2.494-6.167-6.285" transform="translate(-165.911 -0.527)" fill="#1a1311"/>
        <path id="パス_371" data-name="パス 371" d="M382.876,9.476V1.709h3.707v7.11c-.017,1.112.337,1.786,1.382,1.786s1.432-.674,1.432-1.786V1.709H393.1V9.476c0,3.2-2.258,4.5-5.139,4.5-2.8,0-5.088-1.3-5.088-4.5" transform="translate(-176.037 -0.786)" fill="#1a1311"/>
        <path id="パス_372" data-name="パス 372" d="M417.567,5.936a4.429,4.429,0,0,1-4.8,4.752h-1.634v2.983h-3.707V1.708h5.341c3.134,0,4.8,1.482,4.8,4.228m-3.892.3c0-.892-.539-1.432-1.752-1.432h-.792V7.874h.792a1.548,1.548,0,0,0,1.752-1.634" transform="translate(-187.323 -0.785)" fill="#1a1311"/>
      </g>
    </g>
    <g id="グループ_311" data-name="グループ 311" clip-path="url(#clip-path-2)">
      <path id="パス_375" data-name="パス 375" d="M39.567,19.783A19.784,19.784,0,1,1,19.784,0,19.783,19.783,0,0,1,39.567,19.783" transform="translate(0 0)" fill="#fff"/>
      <path id="パス_376" data-name="パス 376" d="M21.782,8.554a11.636,11.636,0,0,0-3.978,0c-.1.018-.138-.08-.062-.136s2.051-1.56,2.051-1.56,1.983,1.51,2.051,1.56.038.154-.061.136m-3.425,9.8a.228.228,0,0,0-.132.131c.415.319.7,1.045,1.567,1.045s1.153-.726,1.568-1.045a.227.227,0,0,0-.132-.131,6.892,6.892,0,0,1-1.436.128,6.87,6.87,0,0,1-1.435-.128m1.435-1.222c-.241,0-.293-.091-.458-.09a.819.819,0,0,0-.526.239.261.261,0,0,0,.068.156c.35.053.509.249.915.249s.565-.2.916-.249a.251.251,0,0,0,.067-.156.818.818,0,0,0-.526-.239c-.164,0-.217.09-.457.09m19.753,3.741q-.038.709-.126,1.405c-2.238.371-3.04-1.625-5.333-1.524a14.445,14.445,0,0,1,.333,1.488c1.892,0,2.655,1.767,4.758,1.507q-.164.812-.4,1.6c-1.665.164-2.251-1.49-4.177-1.445.016.275.024.552.024.831,0,.154,0,.309-.008.463,1.643-.02,2.176,1.5,3.741,1.427-.2.532-.415,1.052-.655,1.561-1.124-.062-1.512-1.5-3.222-1.389q-.078.555-.195,1.1c1.487-.1,1.806,1.264,2.87,1.374q-.407.743-.874,1.446c-.63-.337-1.177-1.357-2.373-1.42q.183-.567.321-1.152a4.957,4.957,0,0,1-3.29-1.339c.33-1.877-2.583-3.788-2.583-5.163,0-1.492.755-2.318.755-4.331A6.3,6.3,0,0,0,27.3,13.081a3.654,3.654,0,0,0-.679-.546A7.059,7.059,0,0,1,28.4,16.961c0,1.895-.883,2.9-.883,4.645s2.559,3.263,2.559,5.065a5.667,5.667,0,0,1-.974,2.764,5.776,5.776,0,0,0,3.61,1.773.555.555,0,0,0,.593-.342c.1-.212.188-.426.275-.643,1.04.04,1.516.986,2.092,1.364q-.474.634-1,1.229a3.767,3.767,0,0,0-1.664-1.346q-.2.4-.431.78a3.214,3.214,0,0,1,1.448,1.27q-.56.58-1.166,1.113a3.821,3.821,0,0,0-1.087-1.16c-.162.22-.332.435-.507.644a3.434,3.434,0,0,1,.921,1.082q-.7.564-1.45,1.063c-.246-2.009-2.989-3.386-2.25-5.718a3.049,3.049,0,0,0-.531,1.544c0,1.688,1.8,3.027,1.941,4.7q-.561.333-1.142.631c-.065-1.844-1.968-3.859-1.968-5.373,0-1.689,2.212-3.385,2.212-5.379s-2.552-3.376-2.552-5.126,1.086-2.757,1.086-5a5.987,5.987,0,0,0-1.986-4.369,3.233,3.233,0,0,0-.677-.47,6.466,6.466,0,0,1,1.8,4.48c0,2.11-1.242,3.28-1.242,5.347s2.5,3.214,2.5,5.139S25.6,30.22,25.6,32.2c0,1.8,2.054,3.6,2.085,5.731q-.674.292-1.372.537c.261-2.158-2.053-4.382-2.053-6.143,0-1.924,2.419-3.578,2.419-5.653s-2.458-3.041-2.458-5.171,1.509-3.308,1.509-5.661a5.734,5.734,0,0,0-2.228-4.5l-.083-.064c-.125-.092-.227.02-.14.129a6.044,6.044,0,0,1,1.437,4.1c0,2.152-1.733,3.9-1.733,5.987,0,2.46,2.327,3.164,2.327,5.183s-2.495,3.633-2.495,5.776c0,1.988,2.361,4.194,1.955,6.488-.473.123-.953.228-1.439.316.442-2.856-1.873-4.908-1.873-6.776,0-2.025,2.582-3.827,2.582-5.8,0-1.864-1.854-2.473-2.1-4.381a.448.448,0,0,0-.53-.405,6.28,6.28,0,0,1-1.618.317,6.289,6.289,0,0,1-1.618-.317.448.448,0,0,0-.53.405c-.243,1.908-2.1,2.518-2.1,4.381,0,1.977,2.583,3.78,2.583,5.8,0,1.868-2.315,3.92-1.873,6.776q-.731-.132-1.44-.316c-.4-2.294,1.955-4.5,1.955-6.488,0-2.143-2.494-3.758-2.494-5.776S16.6,23.949,16.6,21.489c0-2.086-1.732-3.835-1.732-5.987a6.042,6.042,0,0,1,1.437-4.1c.088-.11-.015-.221-.139-.129l-.084.064a5.733,5.733,0,0,0-2.228,4.5c0,2.353,1.509,3.532,1.509,5.661s-2.458,3.1-2.458,5.171,2.418,3.729,2.418,5.653c0,1.76-2.312,3.985-2.051,6.143q-.7-.244-1.373-.537c.03-2.135,2.085-3.933,2.085-5.731,0-1.978-2.33-3.6-2.33-5.527s2.5-3.074,2.5-5.139-1.242-3.237-1.242-5.347a6.467,6.467,0,0,1,1.795-4.48,3.279,3.279,0,0,0-.676.47,5.989,5.989,0,0,0-1.986,4.369c0,2.243,1.085,3.25,1.085,5s-2.551,3.132-2.551,5.126S12.8,30.361,12.8,32.05c0,1.514-1.9,3.53-1.969,5.373q-.583-.3-1.142-.631c.143-1.677,1.941-3.016,1.941-4.7a3.045,3.045,0,0,0-.532-1.544c.739,2.332-2,3.709-2.25,5.718q-.75-.5-1.45-1.063a3.428,3.428,0,0,1,.921-1.082q-.264-.314-.507-.644a3.828,3.828,0,0,0-1.087,1.16Q6.117,34.1,5.557,33.52A3.21,3.21,0,0,1,7,32.25q-.227-.382-.431-.78A3.769,3.769,0,0,0,4.91,32.816q-.521-.595-1-1.229c.576-.378,1.051-1.324,2.091-1.364q.13.326.275.643a.555.555,0,0,0,.593.342,5.776,5.776,0,0,0,3.61-1.773,5.676,5.676,0,0,1-.974-2.764c0-1.8,2.558-3.316,2.558-5.065s-.882-2.75-.882-4.645a7.062,7.062,0,0,1,1.777-4.426,3.634,3.634,0,0,0-.678.546A6.3,6.3,0,0,0,10.467,17.3c0,2.012.755,2.838.755,4.331,0,1.375-2.913,3.286-2.583,5.163a4.956,4.956,0,0,1-3.29,1.339c.091.39.2.774.321,1.152-1.2.063-1.742,1.083-2.373,1.42q-.466-.7-.874-1.446c1.064-.11,1.384-1.478,2.87-1.374q-.118-.541-.195-1.1c-1.71-.115-2.1,1.327-3.223,1.389q-.358-.763-.654-1.561c1.565.072,2.1-1.447,3.74-1.427,0-.154-.008-.308-.008-.463,0-.279.009-.556.024-.831C3.053,23.854,2.467,25.508.8,25.344q-.231-.787-.4-1.6c2.1.26,2.866-1.509,4.759-1.507A14.318,14.318,0,0,1,5.5,20.749C3.2,20.649,2.4,22.644.164,22.273q-.087-.695-.126-1.405c2.6.292,3.579-1.849,5.949-1.587a14.061,14.061,0,0,1,.775-1.643C3.792,17.117,2.783,19.6.017,19.22a19.783,19.783,0,0,1,39.55,0c-2.766.381-3.775-2.1-6.746-1.581a14.067,14.067,0,0,1,.776,1.643c2.369-.262,3.346,1.879,5.948,1.587m-28.257-8.3a5.148,5.148,0,0,0-4.726.509,5.158,5.158,0,0,0-2.078-3.4.177.177,0,0,0-.291.168c.229,2.961-1.5,5.532-3.63,7.791,2.194.66,4.061-2.165,6.907-1.178a14.915,14.915,0,0,1,3.818-3.894m8.5-1.791a3.835,3.835,0,0,0-3.778,2.381c-.031.1.011.169.13.116a2.707,2.707,0,0,1,1.114-.22,2.291,2.291,0,0,1,1.8.753,3.219,3.219,0,0,1-.008,1.865c-.308-.069-.419-.308-.721-.308s-.534.212-1.045.212-.571-.241-.906-.241c-.395,0-.468.406-.468.866,0,2.045,1.88,4.862,3.881,4.862s3.882-2.817,3.882-4.862c0-.46-.094-.852-.508-.905a1.247,1.247,0,0,1-.866.28c-.511,0-.653-.212-.953-.212-.363,0-.327.766-.76.809a3.636,3.636,0,0,1-.061-2.366,2.289,2.289,0,0,1,1.8-.753,2.7,2.7,0,0,1,1.115.22c.119.054.161-.013.13-.116a3.834,3.834,0,0,0-3.778-2.381m2.924,2.936a1.732,1.732,0,0,0-1.281.5.494.494,0,0,0,.015.343c.8-.274,1.5-.284,1.842.1a.614.614,0,0,0,.24-.485c0-.266-.27-.45-.815-.45m-6.423.935a2.046,2.046,0,0,1,2.04-.058c.036-.42-.714-.878-1.465-.878-.545,0-.815.184-.815.45a.614.614,0,0,0,.239.485M28.949,7.725a6.529,6.529,0,0,0-3.728,1.431A14.7,14.7,0,0,1,26.9,5.816a7.2,7.2,0,0,0-4.515,2.025L21.5,5.53,23.458,3.8l-2.62-.184L19.792,1.179,18.745,3.616l-2.62.184L18.082,5.53,17.2,7.841a7.2,7.2,0,0,0-4.516-2.025,14.663,14.663,0,0,1,1.678,3.34,6.529,6.529,0,0,0-3.729-1.431,17.5,17.5,0,0,1,2.213,3.592.24.24,0,0,0,.353.118,14.86,14.86,0,0,1,13.184,0,.239.239,0,0,0,.352-.118,17.561,17.561,0,0,1,2.212-3.592m3.166,8.74c2.844-.987,4.712,1.838,6.906,1.178-2.128-2.259-3.859-4.83-3.63-7.791a.178.178,0,0,0-.292-.168,5.157,5.157,0,0,0-2.077,3.4,5.148,5.148,0,0,0-4.726-.509,14.917,14.917,0,0,1,3.819,3.894" transform="translate(-0.008 0)" fill="#006241"/>
      <path id="パス_377" data-name="パス 377" d="M65.626,73.565h-.612v-.326h1.61v.326h-.612v1.709h-.385Zm1.388-.326H67.6L68.15,74.8h.015l.548-1.561H69.3v2.035h-.385v-1.7h-.01l-.593,1.7H68l-.592-1.7H67.4v1.7h-.385Z" transform="translate(-32.355 -36.449)" fill="#006241"/>
    </g>
  </g>
</svg>
