<svg id="logo_img" xmlns="http://www.w3.org/2000/svg" xmlns:xlink="http://www.w3.org/1999/xlink" width="109.255" height="109.255" viewBox="0 0 109.255 109.255">
  <defs>
    <clipPath id="clip-path">
      <rect id="長方形_78" data-name="長方形 78" width="109.255" height="109.255" fill="none"/>
    </clipPath>
  </defs>
  <g id="マスクグループ_311" data-name="マスクグループ 311" transform="translate(0 0)" clip-path="url(#clip-path)">
    <path id="パス_375" data-name="パス 375" d="M109.255,54.627A54.628,54.628,0,1,1,54.628,0a54.627,54.627,0,0,1,54.627,54.627" transform="translate(0 0)" fill="#fff"/>
    <path id="パス_376" data-name="パス 376" d="M60.115,23.619a32.13,32.13,0,0,0-10.986,0c-.277.05-.38-.221-.172-.376.189-.139,5.663-4.307,5.663-4.307S60.1,23.1,60.284,23.243c.211.155.105.426-.169.376M50.658,50.668a.631.631,0,0,0-.365.361c1.146.881,1.938,2.885,4.328,2.885s3.185-2,4.329-2.885a.626.626,0,0,0-.363-.361,19.032,19.032,0,0,1-3.966.354,18.969,18.969,0,0,1-3.963-.354m3.963-3.375c-.664,0-.81-.251-1.264-.25a2.261,2.261,0,0,0-1.452.66.72.72,0,0,0,.189.431c.967.147,1.406.687,2.527.687s1.559-.54,2.529-.687a.692.692,0,0,0,.186-.431,2.258,2.258,0,0,0-1.452-.66c-.452,0-.6.25-1.262.25m54.544,10.33q-.1,1.958-.347,3.88c-6.181,1.024-8.393-4.486-14.725-4.208a39.886,39.886,0,0,1,.92,4.109c5.225,0,7.332,4.88,13.138,4.161q-.454,2.243-1.092,4.416c-4.6.454-6.217-4.114-11.535-3.989.043.759.067,1.523.067,2.294,0,.426-.008.853-.022,1.277,4.536-.055,6.009,4.138,10.331,3.939-.54,1.469-1.146,2.906-1.807,4.311-3.1-.171-4.174-4.151-8.9-3.835q-.214,1.531-.538,3.027c4.106-.287,4.987,3.49,7.926,3.794q-1.124,2.051-2.414,3.992c-1.741-.931-3.251-3.746-6.551-3.921q.506-1.565.888-3.181a13.687,13.687,0,0,1-9.085-3.7c.91-5.183-7.134-10.46-7.134-14.256,0-4.121,2.085-6.4,2.085-11.958a17.391,17.391,0,0,0-5.023-11.657,10.089,10.089,0,0,0-1.874-1.506c2.778,3.434,4.909,7.505,4.909,12.221,0,5.232-2.437,8-2.437,12.826s7.066,9.009,7.066,13.986c0,1.961-.624,3.874-2.69,7.632,3.171,3.168,7.3,4.9,9.969,4.9a1.531,1.531,0,0,0,1.638-.943c.268-.585.519-1.178.759-1.777,2.871.11,4.185,2.723,5.777,3.766q-1.309,1.752-2.749,3.394c-1.064-1.18-2.5-3.167-4.594-3.717q-.562,1.1-1.19,2.153c1.8.491,3.039,2.314,4,3.508q-1.546,1.6-3.219,3.074a10.551,10.551,0,0,0-3-3.2c-.448.608-.917,1.2-1.4,1.78A9.483,9.483,0,0,1,88.853,97.2q-1.933,1.556-4,2.935c-.68-5.547-8.254-9.349-6.213-15.789A8.419,8.419,0,0,0,77.169,88.6c0,4.662,4.962,8.358,5.36,12.99q-1.548.92-3.154,1.742C79.2,98.246,73.939,92.68,73.939,88.5c0-4.663,6.107-9.347,6.107-14.853S73,64.325,73,59.491s3-7.614,3-13.808A16.533,16.533,0,0,0,70.513,33.62a8.926,8.926,0,0,0-1.868-1.3c3.139,3.769,4.959,7.186,4.959,12.37,0,5.826-3.429,9.058-3.429,14.764s6.91,8.874,6.91,14.19-6.435,9.8-6.435,15.262c0,4.966,5.672,9.93,5.758,15.825q-1.862.807-3.789,1.484c.72-5.957-5.668-12.1-5.668-16.961,0-5.314,6.679-9.88,6.679-15.61s-6.788-8.4-6.788-14.277,4.165-9.135,4.165-15.632A15.833,15.833,0,0,0,64.856,31.3c-.078-.06-.153-.119-.23-.176-.345-.254-.627.054-.386.356A16.69,16.69,0,0,1,68.208,42.8c0,5.942-4.784,10.772-4.784,16.531,0,6.792,6.425,8.737,6.425,14.31S62.961,83.679,62.961,89.6c0,5.489,6.519,11.581,5.4,17.915-1.305.338-2.633.63-3.974.872,1.221-7.887-5.172-13.552-5.172-18.71,0-5.591,7.131-10.568,7.131-16.028,0-5.146-5.12-6.83-5.791-12.1a1.236,1.236,0,0,0-1.465-1.119,17.34,17.34,0,0,1-4.468.877,17.366,17.366,0,0,1-4.468-.877,1.237,1.237,0,0,0-1.465,1.119c-.67,5.268-5.792,6.952-5.792,12.1,0,5.46,7.134,10.436,7.134,16.028,0,5.159-6.393,10.823-5.171,18.71q-2.018-.364-3.977-.872c-1.118-6.335,5.4-12.427,5.4-17.915,0-5.917-6.887-10.377-6.887-15.95s6.424-7.518,6.424-14.31c0-5.759-4.783-10.589-4.783-16.531A16.683,16.683,0,0,1,45,31.478c.243-.3-.042-.61-.384-.356-.078.057-.154.117-.232.176a15.83,15.83,0,0,0-6.153,12.439c0,6.5,4.165,9.752,4.165,15.632s-6.787,8.547-6.787,14.277,6.676,10.3,6.676,15.61c0,4.86-6.385,11-5.663,16.961q-1.929-.674-3.791-1.484c.083-5.9,5.756-10.859,5.756-15.825,0-5.462-6.435-9.947-6.435-15.262s6.913-8.487,6.913-14.19-3.43-8.938-3.43-14.764c0-5.183,1.818-8.6,4.956-12.37a9.055,9.055,0,0,0-1.866,1.3,16.538,16.538,0,0,0-5.484,12.063c0,6.195,3,8.974,3,13.808S29.2,68.14,29.2,73.646,35.3,83.836,35.3,88.5c0,4.181-5.258,9.747-5.436,14.837q-1.61-.82-3.154-1.742c.4-4.631,5.36-8.328,5.36-12.99A8.407,8.407,0,0,0,30.6,84.342c2.042,6.44-5.532,10.242-6.213,15.789q-2.07-1.377-4-2.935a9.465,9.465,0,0,1,2.544-2.988q-.728-.868-1.4-1.78a10.569,10.569,0,0,0-3,3.2q-1.671-1.471-3.218-3.074c.957-1.194,2.192-3.017,4-3.508q-.626-1.055-1.19-2.153c-2.1.551-3.527,2.537-4.593,3.717q-1.44-1.642-2.748-3.394c1.59-1.043,2.9-3.656,5.773-3.766q.36.9.76,1.777a1.531,1.531,0,0,0,1.638.943c2.666,0,6.8-1.728,9.969-4.9-2.063-3.758-2.688-5.67-2.688-7.632,0-4.977,7.064-9.157,7.064-13.986S30.86,52.066,30.86,46.834c0-4.716,2.131-8.787,4.907-12.221a10.035,10.035,0,0,0-1.873,1.506,17.4,17.4,0,0,0-5.024,11.657c0,5.557,2.085,7.837,2.085,11.958,0,3.8-8.042,9.073-7.134,14.256a13.685,13.685,0,0,1-9.085,3.7c.252,1.078.552,2.137.888,3.181-3.3.175-4.81,2.991-6.551,3.921Q7.785,82.849,6.66,80.8c2.938-.3,3.821-4.081,7.926-3.794q-.325-1.494-.538-3.027c-4.723-.316-5.794,3.665-8.9,3.835q-.988-2.108-1.8-4.311c4.321.2,5.8-3.995,10.328-3.939-.011-.424-.021-.852-.021-1.277,0-.771.024-1.535.067-2.294C8.4,65.866,6.782,70.434,2.185,69.98q-.637-2.174-1.1-4.416C6.9,66.282,9,61.4,14.229,61.4a39.537,39.537,0,0,1,.922-4.109C8.817,57.017,6.606,62.526.423,61.5q-.241-1.918-.347-3.88c7.188.806,9.883-5.106,16.426-4.382a38.826,38.826,0,0,1,2.14-4.536c-8.2-1.44-10.988,5.419-18.626,4.366a54.625,54.625,0,0,1,109.207,0C101.587,54.125,98.8,47.266,90.6,48.706a38.844,38.844,0,0,1,2.143,4.536c6.541-.724,9.238,5.188,16.424,4.382M31.139,34.713a14.215,14.215,0,0,0-13.05,1.406,14.244,14.244,0,0,0-5.737-9.379.49.49,0,0,0-.8.465C12.182,35.38,7.4,42.479,1.525,48.718,7.582,50.539,12.738,42.74,20.6,45.464A41.184,41.184,0,0,1,31.139,34.713M54.62,29.768c-5.07,0-9.318,2.867-10.431,6.573-.085.284.031.467.359.32a7.474,7.474,0,0,1,3.077-.606A6.327,6.327,0,0,1,52.6,38.136a8.888,8.888,0,0,1-.022,5.15c-.852-.19-1.158-.85-1.99-.85s-1.474.585-2.885.585-1.577-.666-2.5-.666c-1.09,0-1.291,1.122-1.291,2.391,0,5.648,5.192,13.425,10.715,13.425S65.338,50.4,65.338,44.747c0-1.269-.261-2.354-1.4-2.5a3.442,3.442,0,0,1-2.39.774c-1.411,0-1.8-.585-2.631-.585-1,0-.9,2.115-2.1,2.235a10.039,10.039,0,0,1-.169-6.534,6.32,6.32,0,0,1,4.967-2.081,7.46,7.46,0,0,1,3.079.606c.327.148.444-.036.358-.32-1.112-3.706-5.358-6.573-10.431-6.573m8.073,8.106a4.783,4.783,0,0,0-3.538,1.372,1.365,1.365,0,0,0,.04.946c2.2-.756,4.151-.785,5.086.265a1.7,1.7,0,0,0,.663-1.34c0-.735-.745-1.243-2.251-1.243M44.958,40.457c1.065-1.065,3.305-1.019,5.634-.16.1-1.16-1.972-2.423-4.045-2.423-1.5,0-2.25.508-2.25,1.243a1.7,1.7,0,0,0,.66,1.34M79.905,21.33A18.029,18.029,0,0,0,69.61,25.282a40.6,40.6,0,0,1,4.631-9.223,19.872,19.872,0,0,0-12.467,5.593l-2.436-6.383,5.4-4.774-7.235-.509L54.62,3.255l-2.889,6.73-7.234.509,5.4,4.774-2.432,6.383A19.88,19.88,0,0,0,35,16.059a40.488,40.488,0,0,1,4.633,9.223,18.03,18.03,0,0,0-10.3-3.952,48.321,48.321,0,0,1,6.111,9.918.661.661,0,0,0,.974.325,41.033,41.033,0,0,1,36.405,0,.66.66,0,0,0,.972-.325,48.49,48.49,0,0,1,6.109-9.918m8.743,24.134c7.854-2.724,13.011,5.075,19.069,3.254C101.84,42.479,97.061,35.38,97.693,27.2a.491.491,0,0,0-.806-.465,14.24,14.24,0,0,0-5.734,9.379A14.215,14.215,0,0,0,78.1,34.713,41.189,41.189,0,0,1,88.648,45.464" transform="translate(0.007 0)" fill="#006241"/>
    <path id="パス_377" data-name="パス 377" d="M66.7,74.139H65.014v-.9H69.46v.9H67.769v4.719H66.7Zm3.832-.9H72.16l1.513,4.31h.042l1.513-4.31h1.623v5.619H75.789V74.166h-.028l-1.637,4.692h-.86l-1.635-4.692H71.6v4.692H70.537Z" transform="translate(25.165 28.349)" fill="#006241"/>
  </g>
</svg>
